<svg xmlns="http://www.w3.org/2000/svg" width="430" height="430" style="width:100%;height:100%;transform:translate3d(0,0,0);content-visibility:visible" viewBox="0 0 430 430"><defs><clipPath id="a"><path d="M0 0h430v430H0z"/></clipPath><clipPath id="c"><path d="M0 0h430v430H0z"/></clipPath><clipPath id="d"><path d="M0 0h430v430H0z"/></clipPath><clipPath id="b"><path d="M0 0h430v430H0z"/></clipPath></defs><g fill="none" clip-path="url(#a)"><g clip-path="url(#b)" style="display:block"><path stroke="#121331" stroke-linecap="round" stroke-linejoin="round" stroke-width="12" d="M89.426 33.326H-89.426c-11.49 0-20.804-9.314-20.804-20.804v-45.848h220.46v45.848c0 11.49-9.314 20.804-20.804 20.804z" class="primary" style="display:block" transform="translate(215 341.793)"/><path stroke="#121331" stroke-linecap="round" stroke-linejoin="round" stroke-width="12" d="m-10.121 26.819 20.242-53.638" class="primary" style="display:block" transform="translate(165.238 281.647)"/><path stroke="#121331" stroke-linecap="round" stroke-linejoin="round" stroke-width="12" d="m-10.121-26.819 20.242 53.638" class="primary" style="display:block" transform="translate(264.762 281.647)"/><path class="primary" style="display:none"/><g stroke-linecap="round" stroke-linejoin="round" style="display:block"><path stroke="#121331" stroke-width="12" d="M288.496 254.829H142.507c-21.331 0-40.365-13.795-46.58-34.201-11.507-37.783-10.282-93.706 1.775-131.974 6.36-20.187 25.278-33.773 46.443-33.773h141.24c21.547 0 40.646 14.094 46.753 34.758 11.285 38.18 13.653 92.136 3.397 129.45-5.811 21.143-25.112 35.74-47.039 35.74z" class="primary"/><path stroke="#121331" stroke-width="12" d="M141.992 154.855c0 40.321 32.687 73.008 73.008 73.008s73.008-32.687 73.008-73.008S255.321 81.847 215 81.847s-73.008 32.687-73.008 73.008z" class="primary"/><path stroke="#08A88A" stroke-width="12" d="M173.684 154.855c0 22.818 18.498 41.316 41.316 41.316s41.316-18.498 41.316-41.316-18.498-41.316-41.316-41.316-41.316 18.498-41.316 41.316z" class="secondary"/><path stroke="#08A88A" stroke-width="18" d="M294.523 221.883h.144" class="secondary"/></g></g><g clip-path="url(#c)" style="display:none"><g clip-path="url(#d)" style="display:none"><path class="primary"/><path class="primary"/><path class="primary"/></g><g style="display:none"><path class="primary"/><path class="primary"/><path class="secondary"/><path class="secondary"/></g></g></g></svg>